{
    "accessors" : [
        {
            "bufferView" : 0, 
            "componentType" : 5123, 
            "count" : 17946, 
            "max" : [
                3041
            ], 
            "min" : [
                0
            ], 
            "type" : "SCALAR"
        }, 
        {
            "bufferView" : 1, 
            "componentType" : 5126, 
            "count" : 3042, 
            "max" : [
                1.260690689086914, 
                2.5672576427459717, 
                0.30979299545288086
            ], 
            "min" : [
                -1.2156907320022583, 
                0.0023726194631308317, 
                -0.3137831389904022
            ], 
            "type" : "VEC3"
        }, 
        {
            "bufferView" : 2, 
            "componentType" : 5126, 
            "count" : 3042, 
            "max" : [
                0.999969482421875, 
                0.9998779296875, 
                0.999969482421875
            ], 
            "min" : [
                -0.999969482421875, 
                -0.9998779296875, 
                -1.0
            ], 
            "type" : "VEC3"
        }, 
        {
            "bufferView" : 3, 
            "componentType" : 5123, 
            "count" : 3042, 
            "max" : [
                3, 
                3, 
                3, 
                2
            ], 
            "min" : [
                0, 
                0, 
                0, 
                0
            ], 
            "type" : "VEC4"
        }, 
        {
            "bufferView" : 4, 
            "componentType" : 5126, 
            "count" : 3042, 
            "max" : [
                1.0000044107437134, 
                1.0, 
                1.0, 
                0.0
            ], 
            "min" : [
                0.0, 
                0.0, 
                0.0, 
                0.0
            ], 
            "type" : "VEC4"
        }, 
        {
            "bufferView" : 5, 
            "componentType" : 5126, 
            "count" : 4, 
            "max" : [
                0.7251503467559814, 
                0.7251395583152771, 
                0.013716080226004124, 
                0.0, 
                -9.30740588955814e-06, 
                0.7251503467559814, 
                0.7251465916633606, 
                0.0, 
                0.7251431941986084, 
                0.023376381024718285, 
                0.7251503467559814, 
                0.0, 
                1.2670232057571411, 
                6.0677528381347656e-05, 
                1.1029747781776678e-07, 
                1.0
            ], 
            "min" : [
                -0.02337198331952095, 
                9.30740588955814e-06, 
                -0.016164196655154228, 
                0.0, 
                -0.7250996828079224, 
                -0.008571270853281021, 
                -0.00020847086852882057, 
                0.0, 
                -4.631963020074181e-05, 
                -0.013717587105929852, 
                -6.288539589149877e-05, 
                0.0, 
                1.6276149835903198e-05, 
                -0.7587750554084778, 
                -1.2629692554473877, 
                1.0
            ], 
            "type" : "MAT4"
        }, 
        {
            "bufferView" : 6, 
            "componentType" : 5126, 
            "count" : 60, 
            "max" : [
                2.4583333333333335
            ], 
            "min" : [
                0.0
            ], 
            "type" : "SCALAR"
        }, 
        {
            "bufferView" : 7, 
            "componentType" : 5126, 
            "count" : 60, 
            "max" : [
                5.158826255069471e-08, 
                1.3894100447942037e-07, 
                -6.417569693439873e-06, 
                1.0
            ], 
            "min" : [
                5.158826255069471e-08, 
                1.3894100447942037e-07, 
                -6.417569693439873e-06, 
                1.0
            ], 
            "type" : "VEC4"
        }, 
        {
            "bufferView" : 8, 
            "componentType" : 5126, 
            "count" : 60, 
            "max" : [
                2.4583333333333335
            ], 
            "min" : [
                0.0
            ], 
            "type" : "SCALAR"
        }, 
        {
            "bufferView" : 9, 
            "componentType" : 5126, 
            "count" : 60, 
            "max" : [
                -0.001568672712892294, 
                0.009327875450253487, 
                -0.2295200377702713, 
                0.9732579588890076
            ], 
            "min" : [
                -0.00919897947460413, 
                0.0022020223550498486, 
                -0.9855407476425171, 
                0.16917435824871063
            ], 
            "type" : "VEC4"
        }, 
        {
            "bufferView" : 10, 
            "componentType" : 5126, 
            "count" : 60, 
            "max" : [
                2.4583333333333335
            ], 
            "min" : [
                0.0
            ], 
            "type" : "SCALAR"
        }, 
        {
            "bufferView" : 11, 
            "componentType" : 5126, 
            "count" : 60, 
            "max" : [
                0.23956193029880524, 
                -0.6697389483451843, 
                0.22992965579032898, 
                0.7071202397346497
            ], 
            "min" : [
                -0.11257980763912201, 
                -0.7071519494056702, 
                -0.12267869710922241, 
                0.6642230153083801
            ], 
            "type" : "VEC4"
        }, 
        {
            "bufferView" : 12, 
            "componentType" : 5126, 
            "count" : 60, 
            "max" : [
                2.4583333333333335
            ], 
            "min" : [
                0.0
            ], 
            "type" : "SCALAR"
        }, 
        {
            "bufferView" : 13, 
            "componentType" : 5126, 
            "count" : 60, 
            "max" : [
                0.21757793426513672, 
                0.002972870832309127, 
                -0.017778823152184486, 
                0.9998289942741394
            ], 
            "min" : [
                -0.2444700449705124, 
                -0.003448379458859563, 
                -0.018344026058912277, 
                0.969487726688385
            ], 
            "type" : "VEC4"
        }
    ], 
    "animations" : [
        {
            "channels" : [
                {
                    "sampler" : 0, 
                    "target" : {
                        "node" : 2, 
                        "path" : "rotation"
                    }
                }, 
                {
                    "sampler" : 1, 
                    "target" : {
                        "node" : 3, 
                        "path" : "rotation"
                    }
                }, 
                {
                    "sampler" : 2, 
                    "target" : {
                        "node" : 4, 
                        "path" : "rotation"
                    }
                }, 
                {
                    "sampler" : 3, 
                    "target" : {
                        "node" : 5, 
                        "path" : "rotation"
                    }
                }
            ], 
            "samplers" : [
                {
                    "input" : 6, 
                    "interpolation" : "LINEAR", 
                    "output" : 7
                }, 
                {
                    "input" : 8, 
                    "interpolation" : "LINEAR", 
                    "output" : 9
                }, 
                {
                    "input" : 10, 
                    "interpolation" : "LINEAR", 
                    "output" : 11
                }, 
                {
                    "input" : 12, 
                    "interpolation" : "LINEAR", 
                    "output" : 13
                }
            ]
        }
    ], 
    "asset" : {
        "generator" : "Khronos Blender glTF 2.0 exporter", 
        "version" : "2.0"
    }, 
    "bufferViews" : [
        {
            "buffer" : 0, 
            "byteLength" : 35892, 
            "byteOffset" : 0, 
            "target" : 34963
        }, 
        {
            "buffer" : 0, 
            "byteLength" : 36504, 
            "byteOffset" : 35892, 
            "target" : 34962
        }, 
        {
            "buffer" : 0, 
            "byteLength" : 36504, 
            "byteOffset" : 72396, 
            "target" : 34962
        }, 
        {
            "buffer" : 0, 
            "byteLength" : 24336, 
            "byteOffset" : 108900, 
            "target" : 34962
        }, 
        {
            "buffer" : 0, 
            "byteLength" : 48672, 
            "byteOffset" : 133236, 
            "target" : 34962
        }, 
        {
            "buffer" : 0, 
            "byteLength" : 256, 
            "byteOffset" : 181908
        }, 
        {
            "buffer" : 0, 
            "byteLength" : 240, 
            "byteOffset" : 182164
        }, 
        {
            "buffer" : 0, 
            "byteLength" : 960, 
            "byteOffset" : 182404
        }, 
        {
            "buffer" : 0, 
            "byteLength" : 240, 
            "byteOffset" : 183364
        }, 
        {
            "buffer" : 0, 
            "byteLength" : 960, 
            "byteOffset" : 183604
        }, 
        {
            "buffer" : 0, 
            "byteLength" : 240, 
            "byteOffset" : 184564
        }, 
        {
            "buffer" : 0, 
            "byteLength" : 960, 
            "byteOffset" : 184804
        }, 
        {
            "buffer" : 0, 
            "byteLength" : 240, 
            "byteOffset" : 185764
        }, 
        {
            "buffer" : 0, 
            "byteLength" : 960, 
            "byteOffset" : 186004
        }
    ], 
    "buffers" : [
        {
            "byteLength" : 186964, 
            "uri" : "skeletonWave.bin"
        }
    ], 
    "materials" : [
        {
            "name" : "Material", 
            "pbrMetallicRoughness" : {
                "baseColorFactor" : [
                    0.640000066757203, 
                    0.5802724924724174, 
                    0.421167427616826, 
                    1.0
                ], 
                "metallicFactor" : 0.0
            }
        }
    ], 
    "meshes" : [
        {
            "name" : "SkeletonMesh", 
            "primitives" : [
                {
                    "attributes" : {
                        "JOINTS_0" : 3, 
                        "NORMAL" : 2, 
                        "POSITION" : 1, 
                        "WEIGHTS_0" : 4
                    }, 
                    "indices" : 0, 
                    "material" : 0
                }
            ]
        }
    ], 
    "nodes" : [
        {
            "children" : [
                1, 
                2
            ], 
            "name" : "Armature", 
            "translation" : [
                0.0, 
                0.8208621144294739, 
                -0.0
            ]
        }, 
        {
            "mesh" : 0, 
            "name" : "Skeleton", 
            "scale" : [
                0.7251503467559814, 
                0.7251503467559814, 
                0.7251503467559814
            ], 
            "skin" : 0, 
            "translation" : [
                0.0, 
                -0.8208621144294739, 
                -0.0
            ]
        }, 
        {
            "children" : [
                3
            ], 
            "name" : "Armature_body", 
            "rotation" : [
                5.158826255069471e-08, 
                1.3894100447942037e-07, 
                -6.417569693439873e-06, 
                1.0
            ], 
            "translation" : [
                -1.6276928363367915e-05, 
                -0.8209227919578552, 
                -1.1029823099306668e-07
            ]
        }, 
        {
            "children" : [
                4
            ], 
            "name" : "Armature_upperarm.L", 
            "rotation" : [
                -0.001568672712892294, 
                0.009327875450253487, 
                -0.9855407476425171, 
                0.16917435824871063
            ], 
            "scale" : [
                1.0, 
                1.0000001192092896, 
                1.0
            ], 
            "translation" : [
                0.18821214139461517, 
                1.2649493217468262, 
                0.0005397165077738464
            ]
        }, 
        {
            "children" : [
                5
            ], 
            "name" : "Armature_forearm.L", 
            "rotation" : [
                -0.11257980763912201, 
                -0.6958763003349304, 
                -0.12267869710922241, 
                0.6985929012298584
            ], 
            "scale" : [
                1.0, 
                0.9999998211860657, 
                0.9999998807907104
            ], 
            "translation" : [
                -1.4064170272831689e-08, 
                0.2935880720615387, 
                7.275957614183426e-11
            ]
        }, 
        {
            "name" : "Armature_hand.L", 
            "rotation" : [
                -0.06625357270240784, 
                -0.0009729774319566786, 
                -0.018301382660865784, 
                0.9976345300674438
            ], 
            "scale" : [
                0.9999999403953552, 
                0.9999999403953552, 
                1.0
            ], 
            "translation" : [
                1.2460077414289117e-10, 
                0.24972201883792877, 
                -8.140773388731759e-09
            ]
        }
    ], 
    "scene" : 0, 
    "scenes" : [
        {
            "name" : "Scene", 
            "nodes" : [
                0
            ]
        }
    ], 
    "skins" : [
        {
            "inverseBindMatrices" : 5, 
            "joints" : [
                2, 
                3, 
                4, 
                5
            ], 
            "skeleton" : 0
        }
    ]
}
